<?xml version="1.0" encoding="utf-8"?>
<!-- Generator: Adobe Illustrator 19.0.0, SVG Export Plug-In . SVG Version: 6.00 Build 0)  -->
<svg version="1.1" id="Layer_1" xmlns="http://www.w3.org/2000/svg" xmlns:xlink="http://www.w3.org/1999/xlink" x="0px" y="0px"
	 viewBox="17 -5 143.1 120" style="enable-background:new 17 -5 143.1 120;" xml:space="preserve">
<style type="text/css">
	.st0{fill:#F0AF1E;}
	.st1{fill:#424242;}
</style>
<g id="XMLID_392_">
	<path id="XMLID_399_" class="st0" d="M77.8,52.6h8.6c1.2,0,2.2-1,2.2-2.2V50c0-1.2-1-2.2-2.2-2.2h-10c-1.4,0-2.5,0.9-2.9,2.1
		l-2.2,7.9c-1-0.6-2.2-1-3.5-1H23.7c-2,0-4,0.9-5.2,2.5c-1.4,1.6-1.7,3.7-1.2,5.9l6,24.1c0.7,3,3.4,5,6.5,5h36
		c1.5,0,2.7,1.2,2.7,2.7s-1.2,2.6-2.7,2.6H35.3c-4.2,0-7.9,3.4-7.9,7.7c0,4.4,3.7,8,8.2,7.6c3.6-0.2,6.6-3.1,7.1-6.7
		c0.1-1.2,0-2.4-0.4-3.4h9c-0.2,0.7-0.5,1.6-0.5,2.5c0,4.4,3.7,8,8.2,7.6c3.7-0.2,6.9-3.2,7.1-7c0.1-1.1,0-2.1-0.4-3.2
		c4.1-0.2,7.4-3.7,7.4-7.9c0-3.7-2.5-6.7-6-7.6l6-21.4L77.8,52.6z M35.2,110c-1.4,0-2.5-1.1-2.5-2.5s1.1-2.5,2.5-2.5
		c1.4,0,2.5,1.1,2.5,2.5C37.8,108.8,36.6,110,35.2,110L35.2,110z M58.8,110c-1.4,0-2.5-1.1-2.5-2.5s1.1-2.5,2.5-2.5s2.5,1.1,2.5,2.5
		C61.3,108.8,60.2,110,58.8,110L58.8,110z M22.2,63.9c-0.1-0.6,0.1-1.1,0.2-1.2c0.1-0.2,0.5-0.5,1.1-0.5h4.2l1.2,6H23L22.2,63.9z
		 M24.5,73.1h5.7l1.1,5.5h-5.5L24.5,73.1z M29.6,89.1c-0.6,0-1.2-0.5-1.5-1.1l-1-4.1h5.4l1.1,5.2H29.6L29.6,89.1z M43,89.1h-4.1
		l-1.1-5.2h5.1L43,89.1L43,89.1z M43,78.7h-6.2l-1.1-5.5h7.5L43,78.7L43,78.7z M43,68h-8.5l-1.2-6H43V68z M51.7,89.1h-3.6v-5.2h4.7
		L51.7,89.1z M54.1,78.7h-5.9v-5.5h7.1L54.1,78.7z M48.1,68v-6h9.6l-1.2,6H48.1z M62.5,88c-0.1,0.6-0.7,1.1-1.5,1.1h-4l1.1-5.2h5.4
		L62.5,88z M65.1,78.7h-5.7l1.2-5.5h6.1L65.1,78.7z M69.2,63.9L68.1,68h-6.5l1.2-6h4.9c0.6,0,1,0.4,1.1,0.6
		C69.2,62.9,69.4,63.4,69.2,63.9L69.2,63.9z"/>
	<path id="XMLID_395_" class="st1" d="M159.4,73.2l-5.7-7c-0.9-1.1-1.4-2.5-1.4-4V6.1c0-6.1-5-11.1-11.1-11.1H52.1C46-5,41,0,41,6.1
		v43.1h11V6.1h89.2V63h-58l-1.4,5.1l-5,17.7h75.7c4.1,0,7.5-3.4,7.5-7.5V75C160.1,74.4,159.8,73.7,159.4,73.2L159.4,73.2z
		 M108.7,74.9c0,2.1-1.7,3.7-3.7,3.7H88.4c-2.1,0-3.7-1.7-3.7-3.7V74h24L108.7,74.9L108.7,74.9z"/>
</g>
</svg>
