<?xml version="1.0" encoding="utf-8"?>
<!-- Generator: Adobe Illustrator 19.0.0, SVG Export Plug-In . SVG Version: 6.00 Build 0)  -->
<svg version="1.1" id="Layer_1" xmlns="http://www.w3.org/2000/svg" xmlns:xlink="http://www.w3.org/1999/xlink" x="0px" y="0px"
	 viewBox="9 -5 127.7 120" style="enable-background:new 9 -5 127.7 120;" xml:space="preserve">
<style type="text/css">
	.st0{fill:#424242;}
	.st1{fill:#F0AF1E;}
</style>
<g id="XMLID_27_">
	<path id="XMLID_389_" class="st0" d="M63.9,79.9H19.4c-1,0-1.9-0.9-1.9-1.9V5.5c0-1,0.9-1.9,1.9-1.9h106.8c1,0,1.9,0.9,1.9,1.9
		v15.9c3.1,0.3,6,1.4,8.6,3.1V5.4C136.7-0.3,132-5,126.3-5H19.4C13.7-5,9-0.3,9,5.4v72.5c0,5.7,4.7,10.4,10.4,10.4h35.8v13.9h-5.7
		c-3.5,0-6.4,2.9-6.4,6.4s2.9,6.4,6.4,6.4h18c-2.2-3.2-3.6-7-3.6-11.2C63.9,103.8,63.9,79.9,63.9,79.9z"/>
	<path id="XMLID_385_" class="st1" d="M99.8,108.7v-9.2H81v-59c0-1.2,1-2.3,2.3-2.3h42.5c1.2,0,2.3,1,2.3,2.3v18.2h3.2
		c2,0,3.7,0.5,5.4,1.5V40.5c0-5.9-4.8-10.8-10.8-10.8H83.3c-5.9,0-10.8,4.8-10.8,10.8V104c0,5.9,4.8,10.8,10.8,10.8h18.4
		C100.6,113.1,99.8,110.7,99.8,108.7L99.8,108.7z"/>
	<path id="XMLID_279_" class="st0" d="M131.3,64.1h-20.8c-3,0-5.4,2.4-5.4,5.4v39.3c0,3,2.4,5.4,5.4,5.4h20.8c3,0,5.4-2.4,5.4-5.4
		V69.4C136.6,66.5,134.2,64.1,131.3,64.1L131.3,64.1z M111.5,70.5h18.7v33.9h-18.7V70.5z M120.9,111.5c-0.5,0-1.1-0.2-1.5-0.7
		c-0.4-0.4-0.8-1-0.8-1.6c0-1.2,1-2.3,2.3-2.3c1.2,0,2.3,1,2.3,2.3c0,0.7-0.3,1.2-0.8,1.6C122,111.3,121.4,111.5,120.9,111.5
		L120.9,111.5z"/>
</g>
</svg>
