<?xml version="1.0" encoding="utf-8"?>
<!-- Generator: Adobe Illustrator 19.0.0, SVG Export Plug-In . SVG Version: 6.00 Build 0)  -->
<svg version="1.1" id="Layer_1" xmlns="http://www.w3.org/2000/svg" xmlns:xlink="http://www.w3.org/1999/xlink" x="0px" y="0px"
	 viewBox="0 0 120 120" style="enable-background:new 0 0 120 120;" xml:space="preserve">
<style type="text/css">
	.st0{fill:#424242;}
	.st1{fill:#F0AF1E;}
</style>
<g id="XMLID_930_">
	<path id="XMLID_941_" class="st0" d="M1,2v116.3h117.3V2H1z M108.7,108.7h-98v-97h98V108.7z M108.7,108.7"/>
	<g id="XMLID_928_">
		<path id="XMLID_938_" class="st1" d="M28.6,67.3c0.2,0.9,0.4,2.8,0.4,5.8c0,2.6,0.1,4.4,0.4,5.6c0.3,1.2,0.8,2.2,1.6,3
			c0.8,0.8,1.8,1.4,2.9,1.7c1.2,0.4,2.8,0.5,5,0.5h1.3v-5.8c-1.7,0-2.9-0.1-3.4-0.3c-0.5-0.2-0.9-0.5-1.2-1
			c-0.2-0.4-0.4-1.1-0.4-2.2c0-0.7-0.1-2.4-0.2-5.1c-0.1-1.8-0.3-3.2-0.6-4.2c-0.3-1-0.8-1.9-1.4-2.7c-0.6-0.7-1.4-1.4-2.3-1.9
			c1.1-0.7,1.9-1.4,2.4-2c0.5-0.6,0.9-1.4,1.3-2.4c0.3-1,0.6-2.3,0.6-3.9c0.1-2.8,0.2-4.7,0.2-5.8c0-1,0.1-1.7,0.4-2.1
			c0.2-0.4,0.6-0.7,1.1-0.9c0.5-0.2,1.6-0.3,3.4-0.3v-5.8h-1.3c-2.1,0-3.7,0.1-4.6,0.4c-1.4,0.4-2.6,1-3.3,1.8
			c-0.8,0.8-1.3,1.7-1.6,3c-0.3,1.2-0.4,3.4-0.4,6.5c0,1.9-0.1,3.2-0.2,4c-0.2,1-0.5,1.9-0.9,2.6c-0.4,0.7-0.9,1.2-1.5,1.5
			c-0.6,0.3-1.5,0.5-2.7,0.5v5.8c1.5,0.1,2.6,0.4,3.3,1C27.7,65.1,28.2,66,28.6,67.3L28.6,67.3z M28.6,67.3"/>
		<rect id="XMLID_478_" x="42.9" y="57.3" class="st0" width="6.8" height="6.8"/>
		<path id="XMLID_931_" class="st1" d="M85.1,83.4c1.5-0.4,2.6-1,3.4-1.8c0.8-0.7,1.3-1.7,1.5-3c0.3-1.3,0.4-3.4,0.4-6.5
			c0-1.9,0.1-3.2,0.2-4c0.2-1,0.5-1.9,0.9-2.6c0.4-0.7,0.9-1.2,1.5-1.5c0.6-0.3,1.5-0.5,2.7-0.5h0v-5.8c-1.5-0.1-2.6-0.4-3.3-1
			c-0.7-0.6-1.3-1.5-1.6-2.8c-0.2-0.9-0.4-2.8-0.4-5.8c0-2.5-0.1-4.4-0.4-5.6c-0.3-1.2-0.8-2.2-1.6-3c-0.8-0.8-1.8-1.4-2.9-1.7
			c-1.2-0.3-2.8-0.5-5-0.5h-1.3v5.8c1.8,0,3,0.1,3.5,0.3c0.5,0.2,0.9,0.5,1.1,0.9c0.2,0.4,0.3,1.2,0.3,2.4c0.1,3.8,0.2,6.3,0.4,7.4
			c0.3,1.6,0.8,3,1.5,4c0.6,0.7,1.4,1.5,2.6,2.3c-0.9,0.5-1.7,1.1-2.3,1.8c-0.6,0.7-1,1.5-1.4,2.6c-0.4,1-0.6,2.3-0.7,4
			c-0.1,2.8-0.2,4.6-0.2,5.6c0,1-0.1,1.7-0.4,2.1s-0.6,0.7-1.2,0.9C82,77.9,80.9,78,79.1,78v5.8h1.3C82.5,83.8,84.1,83.7,85.1,83.4
			L85.1,83.4z M85.1,83.4"/>
		<rect id="XMLID_707_" x="56.4" y="57.3" class="st0" width="6.8" height="6.8"/>
		<rect id="XMLID_919_" x="69.8" y="57.3" class="st0" width="6.8" height="6.8"/>
	</g>
</g>
</svg>
