<?xml version="1.0" encoding="utf-8"?>
<!-- Generator: Adobe Illustrator 19.0.0, SVG Export Plug-In . SVG Version: 6.00 Build 0)  -->
<svg version="1.1" xmlns="http://www.w3.org/2000/svg" xmlns:xlink="http://www.w3.org/1999/xlink" x="0px" y="0px"
	 viewBox="-75 84.923 48.491 40.077" enable-background="new -75 84.923 48.491 40.077" xml:space="preserve">
<g id="Layer_7" display="none">
	<path display="inline" fill="#333333" d="M-71.799,125c-1.765,0-3.201-1.429-3.201-3.186v-16.267c0-0.591,0.492-1.071,1.097-1.071
		h19.236v-5.702c0-4.005-3.254-7.263-7.254-7.263c-4,0-7.254,3.261-7.254,7.27c0,0.598-0.487,1.084-1.085,1.084
		c-0.599,0-1.086-0.486-1.086-1.084c0-5.204,4.227-9.438,9.424-9.438c5.194,0,9.42,4.231,9.42,9.431v5.702h2.579
		c0.601,0,1.072,0.471,1.072,1.071v16.267c0,1.757-1.424,3.186-3.175,3.186H-71.799z M-72.835,121.814c0,0.273,0.11,0.53,0.31,0.725
		c0.197,0.191,0.454,0.296,0.726,0.296h19.773c0.557,0,1.011-0.458,1.011-1.021v-15.173h-21.819V121.814z M-61.926,118.621
		c-0.597,0-1.082-0.486-1.082-1.084v-5.048c0-0.598,0.486-1.084,1.082-1.084c0.597,0,1.082,0.486,1.082,1.084v5.048
		C-60.843,118.135-61.329,118.621-61.926,118.621z"/>
</g>
<g id="Layer_6" display="none">
	<path display="inline" fill="#333333" d="M-68.067,107.171c0,1.094-0.887,1.981-1.981,1.981s-1.981-0.887-1.981-1.981
		c0-1.094,0.887-1.981,1.981-1.981S-68.067,106.078-68.067,107.171z M-34.39,108.162h1.981v-1.981h-1.981V108.162z M-29.437,93.304
		v27.734c0,2.188-1.774,3.962-3.962,3.962h-37.639c-2.188,0-3.962-1.774-3.962-3.962V93.304c0-2.188,1.774-3.962,3.962-3.962h37.639
		C-31.211,89.342-29.437,91.116-29.437,93.304z M-31.418,93.304c0-1.094-0.887-1.981-1.981-1.981h-37.639
		c-1.094,0-1.981,0.887-1.981,1.981v27.734c0,1.094,0.887,1.981,1.981,1.981h37.639c1.094,0,1.981-0.887,1.981-1.981V93.304z
		 M-67.076,93.304h31.696v27.734h-31.696V93.304z M-58.854,111.934c0.204-0.202,0.317-0.475,0.318-0.769
		c0.002-0.598-0.482-1.087-1.078-1.09c-0.002,0-0.004,0-0.005,0c-0.599,0-1.087,0.479-1.091,1.071
		c-0.005,0.603,0.472,1.098,1.064,1.103C-59.339,112.239-59.062,112.14-58.854,111.934z M-52.378,110.488
		c0-2.028,0-4.055-0.005-6.083c-0.163-0.074-0.332-0.14-0.506-0.208l-4.376,5.413c0.482,0.795,0.608,1.664,0.348,2.454
		c-0.268,0.811-0.912,1.445-1.822,1.801c-0.01,0.547-0.009,1.094-0.008,1.642l0.001,3.55h6.368V110.488z M-50.415,101.735
		c0.002-0.599-0.481-1.088-1.077-1.09c0,0-0.002,0-0.003,0c-0.6,0-1.089,0.479-1.094,1.071c-0.002,0.297,0.11,0.576,0.316,0.783
		c0.205,0.206,0.48,0.319,0.773,0.319c0.001,0,0.002,0,0.002,0C-50.901,102.817-50.416,102.331-50.415,101.735z M-44.776,110.32
		c-1.18-0.428-1.895-1.37-1.915-2.501c-0.007-0.369,0.062-0.714,0.134-1.08c0.014-0.071,0.028-0.142,0.042-0.215l-3.095-2.663
		c-0.029,0.018-0.057,0.036-0.086,0.053c-0.305,0.19-0.593,0.369-0.925,0.497c-0.001,0-0.002,0-0.002,0
		c-0.001,3.891-0.001,9.148-0.001,13.342v1.304h5.842v-1.636C-44.781,115.058-44.781,112.186-44.776,110.32z M-42.816,107.642
		c0.002-0.298-0.109-0.576-0.313-0.782c-0.205-0.207-0.482-0.32-0.782-0.321c-0.001,0-0.002,0-0.002,0
		c-0.287,0-0.557,0.112-0.76,0.316c-0.205,0.205-0.318,0.477-0.317,0.766c0.002,0.608,0.476,1.088,1.079,1.092
		c0.003,0,0.006,0,0.008,0C-43.307,108.714-42.82,108.235-42.816,107.642z M-37.361,103.466l-3.898,3.141
		c0.268,0.728,0.251,1.488-0.053,2.174c-0.331,0.745-0.968,1.316-1.716,1.542c0.002,1.847,0.002,4.603,0.003,6.917v1.818h5.665
		V103.466z M-65.095,106.325c0.508,0.347,1.016,0.694,1.523,1.043l2.244,1.539c0.851-0.606,1.778-0.742,2.714-0.393l0.262-0.311
		c1.422-1.766,2.844-3.532,4.257-5.306c-0.276-0.671-0.319-1.324-0.125-1.975c0.437-1.456,1.943-2.312,3.426-1.943
		c1.461,0.362,2.365,1.807,2.059,3.289l-0.278,0.475l0.317-0.38c0.538,0.449,1.068,0.906,1.598,1.364l1.727,1.479
		c1.001-0.587,2.015-0.568,3.026,0.055l0.423-0.342c1.531-1.237,3.047-2.464,4.56-3.695v-5.94h-27.734V106.325z M-65.095,119.057
		h4.591v-0.399c0-1.525,0.001-3.778,0.011-4.803c-0.77-0.271-1.347-0.771-1.675-1.433c-0.316-0.639-0.371-1.37-0.159-2.072
		c-0.943-0.645-1.856-1.271-2.768-1.896V119.057z"/>
</g>
<g id="Layer_5" display="none">
	<path display="inline" fill="#333333" d="M-27.426,104.739h-9.111V90.325c0-0.541-0.441-0.983-0.983-0.983h-36.498
		c-0.541,0-0.983,0.441-0.983,0.983v25.268c0,0.541,0.441,0.983,0.983,0.983h4.632v7.44c0,0.374,0.208,0.711,0.543,0.879
		c0.137,0.069,0.289,0.104,0.44,0.104c0.214,0,0.418-0.069,0.589-0.197l10.968-8.225h9.718v2.849c0,0.506,0.411,0.916,0.917,0.916
		l9.218,0.043l5.91,4.433c0.159,0.121,0.35,0.184,0.551,0.184c0.141,0,0.282-0.033,0.41-0.096c0.313-0.156,0.506-0.47,0.506-0.821
		v-3.742h2.189c0.506,0,0.917-0.41,0.917-0.916v-13.769C-26.509,105.15-26.92,104.739-27.426,104.739z M-57.136,114.607
		l-0.149,0.033c-0.066,0.008-0.127,0.016-0.196,0.038c-0.049,0.015-0.1,0.04-0.28,0.129l-9.658,7.242v-6.457
		c0-0.541-0.441-0.983-0.983-0.983h-4.632V91.308h34.532v23.302L-57.136,114.607z M-28.342,118.509h-2.189
		c-0.506,0-0.917,0.41-0.917,0.916v2.825l-4.835-3.604c-0.059-0.034-0.112-0.063-0.173-0.082c-0.073-0.023-0.138-0.032-0.141-0.033
		l-8.697-0.023v-1.932h7.774c0.541,0,0.983-0.441,0.983-0.983v-9.02h8.195V118.509z M-59.921,101.992
		c0.267,0.262,0.402,0.581,0.402,0.958s-0.134,0.701-0.402,0.968c-0.267,0.267-0.589,0.4-0.966,0.4c-0.378,0-0.696-0.133-0.958-0.4
		c-0.262-0.267-0.392-0.591-0.392-0.968s0.13-0.696,0.392-0.958c0.262-0.262,0.58-0.392,0.958-0.392
		C-60.51,101.6-60.188,101.73-59.921,101.992z M-54.811,101.992c0.267,0.262,0.402,0.581,0.402,0.958s-0.134,0.701-0.402,0.968
		c-0.267,0.267-0.589,0.4-0.966,0.4c-0.378,0-0.696-0.133-0.958-0.4s-0.392-0.591-0.392-0.968s0.13-0.696,0.392-0.958
		c0.262-0.262,0.58-0.392,0.958-0.392C-55.401,101.6-55.079,101.73-54.811,101.992z M-49.701,101.992
		c0.267,0.262,0.402,0.581,0.402,0.958s-0.134,0.701-0.402,0.968s-0.589,0.4-0.966,0.4c-0.378,0-0.696-0.133-0.958-0.4
		c-0.262-0.267-0.392-0.591-0.392-0.968s0.13-0.696,0.392-0.958c0.262-0.262,0.58-0.392,0.958-0.392
		C-50.29,101.6-49.968,101.73-49.701,101.992z"/>
</g>
<g id="Layer_4" display="none">
	<path display="inline" fill="#333333" d="M-59.845,106.148l-1.513,1.513c-0.327,0.327-0.327,0.857,0,1.184
		c0.163,0.163,0.378,0.245,0.592,0.245s0.429-0.082,0.592-0.245l1.513-1.513l5.211-1.658l0.144-0.144l8.998-8.999
		c0,0,0.001,0,0.001-0.001c0,0,0-0.001,0-0.001l5.92-5.921c1.306-1.305,1.306-3.43,0-4.736c-1.265-1.266-3.472-1.266-4.737,0
		l-1.183,1.183c-0.001,0.001-0.002,0.001-0.002,0.001s-0.001,0.002-0.002,0.002l-13.879,13.878L-59.845,106.148z M-41.938,87.058
		c0.633-0.633,1.736-0.633,2.369,0c0.653,0.653,0.653,1.715,0,2.368l-0.592,0.592l-2.368-2.368L-41.938,87.058z M-43.714,88.833
		l2.368,2.368l-3.553,3.552l-2.368-2.368L-43.714,88.833z M-48.45,93.57l2.368,2.368l-7.816,7.815l-2.368-2.368L-48.45,93.57z
		 M-57.069,102.95l1.607,1.607l-2.357,0.75L-57.069,102.95z M-64.952,98.205v21.771h25.12V98.205h-1.675
		c-0.462,0-0.837-0.375-0.837-0.837s0.375-0.837,0.837-0.837h3.349v25.12h-28.47V96.53h8.373c0.462,0,0.837,0.375,0.837,0.837
		s-0.375,0.837-0.837,0.837H-64.952z M-38.157,93.181c-0.462,0-0.837,0.375-0.837,0.837s0.375,0.837,0.837,0.837
		c0.924,0,1.675,0.751,1.675,1.675v25.12c0,0.924-0.751,1.675-1.675,1.675h-33.494c-0.924,0-1.675-0.751-1.675-1.675v-1.675h5.024
		V98.205h-5.024V96.53c0-0.924,0.751-1.675,1.675-1.675h16.747c0.462,0,0.837-0.375,0.837-0.837s-0.375-0.837-0.837-0.837h-16.747
		c-1.847,0-3.349,1.502-3.349,3.349v1.675v21.771v1.675c0,1.847,1.502,3.349,3.349,3.349h33.494c1.847,0,3.349-1.502,3.349-3.349
		V96.53C-34.808,94.683-36.31,93.181-38.157,93.181z M-73.325,99.88h3.349v5.024h-3.349V99.88z M-73.325,106.578h3.349v5.024h-3.349
		V106.578z M-73.325,113.277h3.349v5.024h-3.349V113.277z"/>
</g>
<g id="Layer_3" display="none">
	<path display="inline" fill="#333333" d="M-60.217,105v-1.739c0-0.48,0.389-0.87,0.87-0.87h1.739c0.481,0,0.87,0.39,0.87,0.87V105
		c0,0.481-0.389,0.87-0.87,0.87h-1.739C-59.829,105.87-60.217,105.481-60.217,105z M-64.565,99.783h1.739
		c0.481,0,0.87-0.39,0.87-0.87v-1.739c0-0.48-0.389-0.87-0.87-0.87h-1.739c-0.481,0-0.87,0.39-0.87,0.87v1.739
		C-65.435,99.393-65.046,99.783-64.565,99.783z M-59.348,99.783h1.739c0.481,0,0.87-0.39,0.87-0.87v-1.739
		c0-0.48-0.389-0.87-0.87-0.87h-1.739c-0.481,0-0.87,0.39-0.87,0.87v1.739C-60.217,99.393-59.829,99.783-59.348,99.783z
		 M-63.696,122.391c0.96,0,1.739-0.779,1.739-1.739c0-0.96-0.779-1.739-1.739-1.739s-1.739,0.779-1.739,1.739
		C-65.435,121.612-64.656,122.391-63.696,122.391z M-61.087,88.478h-5.217c-0.481,0-0.87,0.39-0.87,0.87s0.389,0.87,0.87,0.87h5.217
		c0.481,0,0.87-0.39,0.87-0.87S-60.606,88.478-61.087,88.478z M-52.391,88.478v33.043c0,1.921-1.557,3.478-3.478,3.478h-15.652
		c-1.921,0-3.478-1.557-3.478-3.478V88.478C-75,86.557-73.443,85-71.522,85h15.652C-53.949,85-52.391,86.557-52.391,88.478z
		 M-54.13,118.043h-19.13v3.478c0,0.96,0.779,1.739,1.739,1.739h15.652c0.96,0,1.739-0.779,1.739-1.739V118.043z M-54.13,93.696
		h-19.13v22.609h19.13V93.696z M-54.13,88.478c0-0.96-0.779-1.739-1.739-1.739h-15.652c-0.96,0-1.739,0.779-1.739,1.739v3.478h19.13
		V88.478z M-69.783,111.957h1.739c0.481,0,0.87-0.389,0.87-0.87v-1.739c0-0.481-0.389-0.87-0.87-0.87h-1.739
		c-0.481,0-0.87,0.389-0.87,0.87v1.739C-70.652,111.568-70.263,111.957-69.783,111.957z M-69.783,105.87h1.739
		c0.481,0,0.87-0.389,0.87-0.87v-1.739c0-0.48-0.389-0.87-0.87-0.87h-1.739c-0.481,0-0.87,0.39-0.87,0.87V105
		C-70.652,105.481-70.263,105.87-69.783,105.87z M-69.783,99.783h1.739c0.481,0,0.87-0.39,0.87-0.87v-1.739
		c0-0.48-0.389-0.87-0.87-0.87h-1.739c-0.481,0-0.87,0.39-0.87,0.87v1.739C-70.652,99.393-70.263,99.783-69.783,99.783z
		 M-64.565,111.957h1.739c0.481,0,0.87-0.389,0.87-0.87v-1.739c0-0.481-0.389-0.87-0.87-0.87h-1.739c-0.481,0-0.87,0.389-0.87,0.87
		v1.739C-65.435,111.568-65.046,111.957-64.565,111.957z M-64.565,105.87h1.739c0.481,0,0.87-0.389,0.87-0.87v-1.739
		c0-0.48-0.389-0.87-0.87-0.87h-1.739c-0.481,0-0.87,0.39-0.87,0.87V105C-65.435,105.481-65.046,105.87-64.565,105.87z"/>
</g>
<g id="Layer_2">
	<path fill="#333333" d="M-53,112c0-0.553,0.447-1,1-1s1,0.447,1,1s-0.447,1-1,1S-53,112.553-53,112z M-29,89v23
		c0,2.209-1.791,4-4,4h-13.805c0.595,3.301,2.573,5.572,4.401,7H-40c0.553,0,1,0.447,1,1s-0.447,1-1,1h-24c-0.553,0-1-0.447-1-1
		s0.447-1,1-1h2.403c1.827-1.428,3.807-3.699,4.401-7H-71c-2.209,0-4-1.791-4-4V89c0-2.209,1.791-4,4-4h38
		C-30.791,85-29,86.791-29,89z M-48.857,116h-6.287c-0.444,3.024-1.864,5.318-3.459,7h13.205
		C-46.993,121.318-48.413,119.024-48.857,116z M-31,110h-42v2c0,1.104,0.896,2,2,2h14h10h14c1.104,0,2-0.896,2-2V110z M-31,89
		c0-1.104-0.896-2-2-2h-38c-1.104,0-2,0.896-2,2v19h42V89z M-56.025,100.465l-2.46-2.481l2.477-2.499l0.103-0.113
		c0.266-0.338,0.233-0.815-0.074-1.108c-0.3-0.29-0.758-0.306-1.088-0.041c-0.047,0.038-0.09,0.081-0.145,0.138l-2.945,2.972
		l-0.077,0.079c-0.314,0.346-0.316,0.794-0.009,1.136l3.056,3.084c0.043,0.043,0.09,0.088,0.144,0.129
		c0.146,0.11,0.319,0.168,0.5,0.168c0.222,0,0.43-0.087,0.585-0.247c0.291-0.297,0.314-0.753,0.055-1.084
		C-55.94,100.552-55.983,100.507-56.025,100.465z M-46.81,94.333c-0.047-0.049-0.098-0.097-0.158-0.141
		c-0.329-0.236-0.773-0.2-1.058,0.083c-0.287,0.284-0.325,0.729-0.081,1.075c0.04,0.052,0.085,0.1,0.141,0.155l2.455,2.48
		l-2.48,2.503l-0.072,0.078c-0.289,0.341-0.271,0.828,0.044,1.134c0.153,0.148,0.354,0.23,0.566,0.23
		c0.204,0,0.403-0.077,0.562-0.216l3.085-3.111l0.096-0.104c0.244-0.312,0.241-0.729-0.008-1.038L-46.81,94.333z M-50.519,92.347
		c-0.402-0.116-0.831,0.106-0.973,0.501l-2.354,9.761c-0.015,0.063-0.028,0.135-0.031,0.209c-0.008,0.219,0.071,0.426,0.224,0.584
		c0.155,0.159,0.369,0.246,0.624,0.246c0.001,0,0.001,0,0.001,0c0.305-0.013,0.571-0.201,0.695-0.488
		c0.021-0.048,0.036-0.098,0.057-0.183l2.26-9.399c0.023-0.096,0.048-0.194,0.07-0.302C-49.865,92.863-50.111,92.464-50.519,92.347z
		"/>
</g>
</svg>
